<svg class="colorwheel" viewBox="-50 20 200 60" xmlns="http://www.w3.org/2000/svg"><defs><clipPath id="turquoise-mask"><polygon points="50,50 110,50 98.54101966249685,85.26711513754839" fill="#ff2200"></polygon></clipPath><clipPath id="green-mask"><polygon points="50,50 98.54101966249685,85.26711513754839 68.54101966249685,107.06339097770922" fill="#ff2200"></polygon></clipPath><clipPath id="blue-mask"><polygon points="50,50 68.54101966249685,107.06339097770922 31.45898033750316,107.06339097770922" fill="#ff2200"></polygon></clipPath><clipPath id="royalblue-mask"><polygon points="50,50 31.45898033750316,107.06339097770922 1.4589803375031494,85.26711513754839" fill="#ff2200"></polygon></clipPath><clipPath id="purple-mask"><polygon points="50,50 1.4589803375031494,85.26711513754839 -10,50.00000000000001" fill="#ff2200"></polygon></clipPath><clipPath id="red-mask"><polygon points="50,50 -10,50.00000000000001 1.4589803375031494,14.73288486245162" fill="#ff2200"></polygon></clipPath><clipPath id="orange-mask"><polygon points="50,50 1.4589803375031494,14.73288486245162 31.458980337503146,-7.063390977709211" fill="#ff2200"></polygon></clipPath><clipPath id="yellow-mask"><polygon points="50,50 31.458980337503146,-7.063390977709211 68.54101966249684,-7.0633909777092185" fill="#ff2200"></polygon></clipPath><clipPath id="shamrock-mask"><polygon points="50,50 68.54101966249684,-7.0633909777092185 98.54101966249684,14.732884862451598" fill="#ff2200"></polygon></clipPath><clipPath id="gray-mask"><polygon points="50,50 98.54101966249684,14.732884862451598 110,49.999999999999986" fill="#ff2200"></polygon></clipPath></defs><g clip-path="url(#turquoise-mask)"><circle cx="50" cy="50" r="25" fill="#005559"></circle><circle cx="50" cy="50" r="21.875" fill="#006f77"></circle><circle cx="50" cy="50" r="18.75" fill="#00848e"></circle><circle cx="50" cy="50" r="15.625" fill="#00a1b2"></circle><circle cx="50" cy="50" r="12.5" fill="#00b9cc"></circle><circle cx="50" cy="50" r="9.375" fill="#4fd5e0"></circle><circle cx="50" cy="50" r="6.25" fill="#80e1e8"></circle><circle cx="50" cy="50" r="3.125" fill="#b1eaef"></circle><circle cx="50" cy="50" r="0" fill="#e1f7f9"></circle></g><g clip-path="url(#green-mask)"><circle cx="50" cy="50" r="25" fill="#006613"></circle><circle cx="50" cy="50" r="21.875" fill="#1f7e1e"></circle><circle cx="50" cy="50" r="18.75" fill="#3f962a"></circle><circle cx="50" cy="50" r="15.625" fill="#5ead35"></circle><circle cx="50" cy="50" r="12.5" fill="#7dc540"></circle><circle cx="50" cy="50" r="9.375" fill="#9cd575"></circle><circle cx="50" cy="50" r="6.25" fill="#bee5a3"></circle><circle cx="50" cy="50" r="3.125" fill="#d2efbe"></circle><circle cx="50" cy="50" r="0" fill="#e8f9dc"></circle></g><g clip-path="url(#blue-mask)"><circle cx="50" cy="50" r="25" fill="#003a8a"></circle><circle cx="50" cy="50" r="21.875" fill="#004999"></circle><circle cx="50" cy="50" r="18.75" fill="#006bba"></circle><circle cx="50" cy="50" r="15.625" fill="#008cdb"></circle><circle cx="50" cy="50" r="12.5" fill="#00a6fb"></circle><circle cx="50" cy="50" r="9.375" fill="#2ab6f4"></circle><circle cx="50" cy="50" r="6.25" fill="#82d8f9"></circle><circle cx="50" cy="50" r="3.125" fill="#b4e5f9"></circle><circle cx="50" cy="50" r="0" fill="#e0f4fc"></circle></g><g clip-path="url(#royalblue-mask)"><circle cx="50" cy="50" r="25" fill="#23146e"></circle><circle cx="50" cy="50" r="21.875" fill="#322a93"></circle><circle cx="50" cy="50" r="18.75" fill="#3d40b8"></circle><circle cx="50" cy="50" r="15.625" fill="#4756dd"></circle><circle cx="50" cy="50" r="12.5" fill="#466eff"></circle><circle cx="50" cy="50" r="9.375" fill="#6c8cff"></circle><circle cx="50" cy="50" r="6.25" fill="#95abff"></circle><circle cx="50" cy="50" r="3.125" fill="#bdc9ff"></circle><circle cx="50" cy="50" r="0" fill="#e6e8ff"></circle></g><g clip-path="url(#purple-mask)"><circle cx="50" cy="50" r="25" fill="#481f61"></circle><circle cx="50" cy="50" r="21.875" fill="#522273"></circle><circle cx="50" cy="50" r="18.75" fill="#612c85"></circle><circle cx="50" cy="50" r="15.625" fill="#7b38a1"></circle><circle cx="50" cy="50" r="12.5" fill="#9355b7"></circle><circle cx="50" cy="50" r="9.375" fill="#a972cc"></circle><circle cx="50" cy="50" r="6.25" fill="#c396e0"></circle><circle cx="50" cy="50" r="3.125" fill="#e2c0f7"></circle><circle cx="50" cy="50" r="0" fill="#efdeff"></circle></g><g clip-path="url(#red-mask)"><circle cx="50" cy="50" r="25" fill="#7a0004"></circle><circle cx="50" cy="50" r="21.875" fill="#93060e"></circle><circle cx="50" cy="50" r="18.75" fill="#ab0c17"></circle><circle cx="50" cy="50" r="15.625" fill="#c41121"></circle><circle cx="50" cy="50" r="12.5" fill="#dc172a"></circle><circle cx="50" cy="50" r="9.375" fill="#e74d59"></circle><circle cx="50" cy="50" r="6.25" fill="#f28289"></circle><circle cx="50" cy="50" r="3.125" fill="#fdb8b8"></circle><circle cx="50" cy="50" r="0" fill="#ffeae8"></circle></g><g clip-path="url(#orange-mask)"><circle cx="50" cy="50" r="25" fill="#702e0a"></circle><circle cx="50" cy="50" r="21.875" fill="#92380e"></circle><circle cx="50" cy="50" r="18.75" fill="#b64915"></circle><circle cx="50" cy="50" r="15.625" fill="#d3571a"></circle><circle cx="50" cy="50" r="12.5" fill="#ef651f"></circle><circle cx="50" cy="50" r="9.375" fill="#ff802d"></circle><circle cx="50" cy="50" r="6.25" fill="#ffa86c"></circle><circle cx="50" cy="50" r="3.125" fill="#ffd0ab"></circle><circle cx="50" cy="50" r="0" fill="#fff5e4"></circle></g><g clip-path="url(#yellow-mask)"><circle cx="50" cy="50" r="25" fill="#8e6500"></circle><circle cx="50" cy="50" r="21.875" fill="#ab8300"></circle><circle cx="50" cy="50" r="18.75" fill="#c9a000"></circle><circle cx="50" cy="50" r="15.625" fill="#e6be00"></circle><circle cx="50" cy="50" r="12.5" fill="#f3d00e"></circle><circle cx="50" cy="50" r="9.375" fill="#ffe11c"></circle><circle cx="50" cy="50" r="6.25" fill="#ffeb6a"></circle><circle cx="50" cy="50" r="3.125" fill="#fff197"></circle><circle cx="50" cy="50" r="0" fill="#fff9d5"></circle></g><g clip-path="url(#shamrock-mask)"><circle cx="50" cy="50" r="25" fill="#087249"></circle><circle cx="50" cy="50" r="21.875" fill="#048855"></circle><circle cx="50" cy="50" r="18.75" fill="#009e60"></circle><circle cx="50" cy="50" r="15.625" fill="#2ab06f"></circle><circle cx="50" cy="50" r="12.5" fill="#54c27d"></circle><circle cx="50" cy="50" r="9.375" fill="#73d091"></circle><circle cx="50" cy="50" r="6.25" fill="#99dea8"></circle><circle cx="50" cy="50" r="3.125" fill="#beebc3"></circle><circle cx="50" cy="50" r="0" fill="#e1f7dc"></circle></g><g clip-path="url(#gray-mask)"><circle cx="50" cy="50" r="46.875" fill="#191919"></circle><circle cx="50" cy="50" r="43.75" fill="#242424"></circle><circle cx="50" cy="50" r="40.625" fill="#353535"></circle><circle cx="50" cy="50" r="37.5" fill="#454646"></circle><circle cx="50" cy="50" r="34.375" fill="#525252"></circle><circle cx="50" cy="50" r="31.25" fill="#606060"></circle><circle cx="50" cy="50" r="28.125" fill="#6d6d6d"></circle><circle cx="50" cy="50" r="25" fill="#898989"></circle><circle cx="50" cy="50" r="21.875" fill="#a0a0a0"></circle><circle cx="50" cy="50" r="18.75" fill="#b7b7b7"></circle><circle cx="50" cy="50" r="15.625" fill="#cccccc"></circle><circle cx="50" cy="50" r="12.5" fill="#e6e6e6"></circle><circle cx="50" cy="50" r="9.375" fill="#ececec"></circle><circle cx="50" cy="50" r="6.25" fill="#f2f2f2"></circle><circle cx="50" cy="50" r="3.125" fill="#f8f8f8"></circle><circle cx="50" cy="50" r="0" fill="#fafafa"></circle></g></svg>
