<?xml version="1.0" encoding="UTF-8" standalone="no"?>
<svg width="426px" height="238px" viewBox="0 0 426 238" version="1.1" xmlns="http://www.w3.org/2000/svg" xmlns:xlink="http://www.w3.org/1999/xlink">
    <!-- Generator: Sketch 3.8.3 (29802) - http://www.bohemiancoding.com/sketch -->
    <title>Artboard 1</title>
    <desc>Created with Sketch.</desc>
    <defs></defs>
    <g id="Page-1" stroke="none" stroke-width="1" fill="none" fill-rule="evenodd">
        <g id="Artboard-1">
            <path d="M183.504883,145.332813 C183.504883,145.678518 183.545898,146.056444 183.62793,146.466602 C183.698243,146.859182 183.812499,147.242968 183.970703,147.61797 C184.152345,147.963674 184.386717,148.250781 184.673828,148.479298 C184.960939,148.719533 185.321287,148.839649 185.754883,148.839649 C186.217776,148.839649 186.60742,148.690237 186.923828,148.391407 C187.222658,148.116015 187.46289,147.767386 187.644531,147.345509 C187.95508,146.44316 188.104492,145.602348 188.092773,144.823048 C188.104492,144.020309 187.943361,143.211724 187.609375,142.397266 C187.427733,142.010546 187.187501,141.697072 186.888672,141.456837 C186.583983,141.216601 186.200198,141.096485 185.737305,141.096485 C185.280271,141.096485 184.908205,141.248827 184.621094,141.553516 C184.316405,141.852346 184.082032,142.224413 183.917969,142.669727 C183.759765,143.109183 183.657227,143.569139 183.610352,144.04961 C183.540039,144.530081 183.504883,144.957811 183.504883,145.332813 L183.504883,145.332813 Z M190.650391,140.744923 C190.374999,142.291805 190.02051,143.771283 189.586914,145.183399 C189.540039,145.329884 189.472657,145.53496 189.384766,145.798634 C189.267578,146.074026 189.208984,146.264453 189.208984,146.369923 C189.208984,146.457814 189.24414,146.583789 189.314453,146.747852 C189.384766,146.917775 189.475585,147.099414 189.586914,147.292774 C189.692383,147.486135 189.818359,147.647266 189.964844,147.776173 C190.105469,147.934377 190.249023,148.013477 190.395508,148.013477 C190.635743,148.013477 190.814453,147.922658 190.931641,147.741016 C191.042969,147.571094 191.098633,147.392385 191.098633,147.204884 L191.458984,147.204884 C191.458984,147.421682 191.453125,147.650195 191.441406,147.89043 C191.417969,148.142385 191.368164,148.379687 191.291992,148.602345 C191.221679,148.819142 191.116212,149.000781 190.975586,149.147266 C190.829101,149.287892 190.635743,149.364063 190.395508,149.375782 C190.120116,149.364063 189.891602,149.276173 189.709961,149.11211 C189.516601,148.953906 189.367188,148.754689 189.261719,148.514454 C189.068358,147.998826 188.930664,147.489066 188.848633,146.985157 L188.813477,146.985157 C188.608397,147.559379 188.218753,148.086717 187.644531,148.567188 C187.06445,149.082816 186.337895,149.352344 185.464844,149.375782 C184.287103,149.352344 183.381839,148.904107 182.749023,148.031055 C182.09863,147.175582 181.773438,146.185358 181.773438,145.060352 C181.773438,143.894331 182.122067,142.863091 182.819336,141.966602 C183.504886,141.052535 184.445307,140.58379 185.640625,140.560352 C186.554692,140.58379 187.228513,140.92656 187.662109,141.588673 C188.089846,142.244926 188.353515,142.965622 188.453125,143.750782 L188.488281,143.750782 L189.077148,140.744923 L190.650391,140.744923 Z" id="α" fill="#979797"></path>
            <path d="M153.973633,210 L158.921875,197.115234 L160.758789,197.115234 L166.032227,210 L164.089844,210 L162.586914,206.097656 L157.199219,206.097656 L155.78418,210 L153.973633,210 Z M157.691406,204.708984 L162.05957,204.708984 L160.714844,201.140625 C160.304685,200.056635 160.000001,199.166019 159.800781,198.46875 C159.636718,199.294926 159.405275,200.11523 159.106445,200.929688 L157.691406,204.708984 Z" id="A" fill="#979797"></path>
            <path d="M156.318359,44 L156.318359,31.1152344 L161.152344,31.1152344 C162.136724,31.1152344 162.926267,31.2456042 163.520996,31.5063477 C164.115726,31.7670911 164.581541,32.1684543 164.918457,32.7104492 C165.255373,33.2524441 165.423828,33.819333 165.423828,34.4111328 C165.423828,34.9619168 165.274416,35.4804663 164.975586,35.9667969 C164.676756,36.4531274 164.225589,36.8457016 163.62207,37.1445312 C164.401371,37.373048 165.000486,37.7626926 165.419434,38.3134766 C165.838381,38.8642606 166.047852,39.5146447 166.047852,40.2646484 C166.047852,40.8681671 165.920411,41.4291966 165.665527,41.9477539 C165.410643,42.4663112 165.095705,42.8662095 164.720703,43.1474609 C164.345701,43.4287123 163.875491,43.6411126 163.310059,43.784668 C162.744626,43.9282234 162.051762,44 161.231445,44 L156.318359,44 Z M158.023438,36.5292969 L160.80957,36.5292969 C161.565433,36.5292969 162.10742,36.4794927 162.435547,36.3798828 C162.869143,36.2509759 163.1958,36.0371109 163.415527,35.7382812 C163.635255,35.4394516 163.745117,35.0644554 163.745117,34.6132812 C163.745117,34.1855447 163.642579,33.8090837 163.4375,33.4838867 C163.232421,33.1586898 162.939455,32.9360358 162.558594,32.815918 C162.177732,32.6958002 161.524419,32.6357422 160.598633,32.6357422 L158.023438,32.6357422 L158.023438,36.5292969 Z M158.023438,42.4794922 L161.231445,42.4794922 C161.782229,42.4794922 162.168944,42.4589846 162.391602,42.4179688 C162.784182,42.3476559 163.112303,42.2304696 163.375977,42.0664062 C163.63965,41.9023429 163.856444,41.6635758 164.026367,41.3500977 C164.19629,41.0366195 164.28125,40.6748067 164.28125,40.2646484 C164.28125,39.7841773 164.158204,39.366701 163.912109,39.012207 C163.666014,38.6577131 163.324709,38.4086921 162.888184,38.2651367 C162.451658,38.1215813 161.823246,38.0498047 161.00293,38.0498047 L158.023438,38.0498047 L158.023438,42.4794922 Z" id="B" fill="#979797"></path>
            <path d="M315.582031,94.4824219 L317.287109,94.9130859 C316.929686,96.3134836 316.286626,97.381344 315.35791,98.1166992 C314.429195,98.8520545 313.293952,99.2197266 311.952148,99.2197266 C310.56347,99.2197266 309.434086,98.9370145 308.563965,98.371582 C307.693843,97.8061495 307.031741,96.98731 306.577637,95.9150391 C306.123533,94.8427681 305.896484,93.6914124 305.896484,92.4609375 C305.896484,91.1191339 306.152829,89.9487355 306.665527,88.949707 C307.178225,87.9506786 307.90771,87.1918971 308.854004,86.6733398 C309.800298,86.1547826 310.841791,85.8955078 311.978516,85.8955078 C313.267585,85.8955078 314.351558,86.2236295 315.230469,86.8798828 C316.109379,87.5361361 316.721678,88.4589784 317.067383,89.6484375 L315.388672,90.0439453 C315.089842,89.1064406 314.656253,88.4238303 314.087891,87.9960938 C313.519528,87.5683572 312.804692,87.3544922 311.943359,87.3544922 C310.95312,87.3544922 310.125492,87.5917945 309.460449,88.0664062 C308.795407,88.541018 308.328126,89.1782187 308.058594,89.9780273 C307.789061,90.777836 307.654297,91.6025348 307.654297,92.4521484 C307.654297,93.547857 307.813963,94.5043904 308.133301,95.3217773 C308.452638,96.1391642 308.949215,96.749998 309.623047,97.1542969 C310.296878,97.5585958 311.026363,97.7607422 311.811523,97.7607422 C312.766606,97.7607422 313.575192,97.4853543 314.237305,96.9345703 C314.899417,96.3837863 315.347655,95.5664117 315.582031,94.4824219 L315.582031,94.4824219 Z" id="C" fill="#979797"></path>
            <path d="M167,189.306462 L166,57" id="Line" stroke="#979797" stroke-linecap="square"></path>
            <path d="M168.5,188.5 L295.5,101.5" id="Line" stroke="#979797" stroke-linecap="square"></path>
            <path d="M234.120368,143.580643 C219.977401,123.755054 192.787155,111.813244 166.577982,111.813244 C166.245778,111.813244 167.004856,189.537917 167.004856,189.537917 L234.120368,143.580643 Z" id="Combined-Shape" stroke="#979797"></path>
            <circle id="Oval-1" fill="#979797" cx="297" cy="101" r="3"></circle>
            <circle id="Oval-1-Copy" fill="#979797" cx="166" cy="56" r="3"></circle>
            <circle id="Oval-1-Copy-2" fill="#979797" cx="167" cy="189" r="3"></circle>
        </g>
    </g>
</svg>